<svg width="9" height="8" viewBox="0 0 9 8" fill="none" xmlns="http://www.w3.org/2000/svg">
<path d="M7.50046 1.66663L1.50046 1.66663C1.43971 1.66682 1.38017 1.68358 1.32823 1.71509C1.2763 1.7466 1.23395 1.79169 1.20573 1.84548C1.17751 1.89928 1.1645 1.95975 1.16809 2.02039C1.17169 2.08103 1.19175 2.13955 1.22613 2.18963L4.22613 6.52296C4.35046 6.70263 4.64979 6.70263 4.77446 6.52296L7.77446 2.18963C7.80919 2.13965 7.82955 2.08111 7.83334 2.02037C7.83713 1.95962 7.8242 1.89901 7.79596 1.8451C7.76771 1.79119 7.72523 1.74605 7.67314 1.71458C7.62104 1.68312 7.56132 1.66654 7.50046 1.66663Z" fill="white"/>
</svg>
