<svg width="9" height="8" viewBox="0 0 9 8" fill="none" xmlns="http://www.w3.org/2000/svg">
<g clip-path="url(#clip0_1112_733)">
<path d="M7.75046 1.66663L1.75046 1.66663C1.68971 1.66682 1.63017 1.68358 1.57823 1.71509C1.5263 1.7466 1.48395 1.79169 1.45573 1.84548C1.42751 1.89928 1.4145 1.95975 1.41809 2.02039C1.42169 2.08103 1.44175 2.13955 1.47613 2.18963L4.47613 6.52296C4.60046 6.70263 4.89979 6.70263 5.02446 6.52296L8.02446 2.18963C8.05919 2.13965 8.07955 2.08111 8.08334 2.02037C8.08713 1.95962 8.0742 1.89901 8.04596 1.8451C8.01771 1.79119 7.97523 1.74605 7.92314 1.71458C7.87104 1.68312 7.81132 1.66654 7.75046 1.66663Z" fill="#333333"/>
</g>
<defs>
<clipPath id="clip0_1112_733">
<rect width="8" height="8" fill="white" transform="translate(8.75 8) rotate(-180)"/>
</clipPath>
</defs>
</svg>
