<svg width="9" height="8" viewBox="0 0 9 8" fill="none" xmlns="http://www.w3.org/2000/svg">
<g clip-path="url(#clip0_1112_736)">
<path d="M7.25046 1.66663L1.25046 1.66663C1.18971 1.66682 1.13017 1.68358 1.07823 1.71509C1.0263 1.7466 0.983946 1.79169 0.955728 1.84548C0.92751 1.89928 0.914498 1.95975 0.918092 2.02039C0.921687 2.08103 0.941751 2.13955 0.976127 2.18963L3.97613 6.52296C4.10046 6.70263 4.39979 6.70263 4.52446 6.52296L7.52446 2.18963C7.55919 2.13965 7.57955 2.08111 7.58334 2.02037C7.58713 1.95962 7.5742 1.89901 7.54596 1.8451C7.51771 1.79119 7.47523 1.74605 7.42314 1.71458C7.37104 1.68312 7.31132 1.66654 7.25046 1.66663Z" fill="#333333"/>
</g>
<defs>
<clipPath id="clip0_1112_736">
<rect width="8" height="8" fill="white" transform="translate(8.25 8) rotate(-180)"/>
</clipPath>
</defs>
</svg>
