<svg width="24" height="24" viewBox="0 0 24 24" fill="none" xmlns="http://www.w3.org/2000/svg">
<path d="M20.9994 5.00002L2.99943 5.00002C2.81719 5.00059 2.63855 5.05085 2.48275 5.14539C2.32695 5.23994 2.19989 5.37518 2.11523 5.53657C2.03058 5.69796 1.99154 5.87938 2.00232 6.0613C2.01311 6.24322 2.0733 6.41876 2.17643 6.56902L11.1764 19.569C11.5494 20.108 12.4474 20.108 12.8214 19.569L21.8214 6.56902C21.9256 6.41907 21.9867 6.24345 21.9981 6.06122C22.0094 5.879 21.9706 5.69714 21.8859 5.53541C21.8012 5.37368 21.6738 5.23826 21.5175 5.14387C21.3612 5.04948 21.182 4.99973 20.9994 5.00002ZM11.9994 17.243L4.90743 7.00002L19.0914 7.00002L11.9994 17.243Z" fill="#EBEBEB"/>
</svg>
