<svg width="24" height="24" viewBox="0 0 24 24" fill="none" xmlns="http://www.w3.org/2000/svg">
<path d="M4.99941 3.00008L4.99941 21.0001C4.99998 21.1823 5.05024 21.361 5.14478 21.5168C5.23933 21.6726 5.37457 21.7996 5.53596 21.8843C5.69735 21.9689 5.87877 22.008 6.06069 21.9972C6.24261 21.9864 6.41815 21.9262 6.56841 21.8231L19.5684 12.8231C20.1074 12.4501 20.1074 11.5521 19.5684 11.1781L6.56841 2.17808C6.41846 2.07391 6.24284 2.01282 6.06061 2.00145C5.87839 1.99008 5.69653 2.02887 5.5348 2.1136C5.37307 2.19833 5.23765 2.32576 5.14326 2.48205C5.04887 2.63834 4.99912 2.8175 4.99941 3.00008ZM17.2424 12.0001L6.99941 19.0921L6.99941 4.90808L17.2424 12.0001Z" fill="#E86022"/>
</svg>
