<svg width="24" height="24" viewBox="0 0 24 24" fill="none" xmlns="http://www.w3.org/2000/svg">
<path d="M4.99941 2.99999L4.99941 21C4.99998 21.1822 5.05024 21.3609 5.14478 21.5167C5.23933 21.6725 5.37457 21.7995 5.53596 21.8842C5.69735 21.9688 5.87877 22.0079 6.06069 21.9971C6.24261 21.9863 6.41815 21.9261 6.56841 21.823L19.5684 12.823C20.1074 12.45 20.1074 11.552 19.5684 11.178L6.56841 2.17799C6.41846 2.07382 6.24284 2.01273 6.06061 2.00136C5.87839 1.98999 5.69653 2.02878 5.5348 2.11351C5.37307 2.19824 5.23765 2.32567 5.14326 2.48196C5.04887 2.63825 4.99912 2.81741 4.99941 2.99999ZM17.2424 12L6.99941 19.092L6.99941 4.90799L17.2424 12Z" fill="#E86022"/>
</svg>
