<svg width="24" height="25" viewBox="0 0 24 25" fill="none" xmlns="http://www.w3.org/2000/svg">
<path d="M6 13.998H10.5V15.498H6V13.998ZM6 16.998H13.5V18.498H6V16.998Z" fill="#E86022"/>
<path d="M19.5 3.49805H4.5C4.1023 3.49844 3.721 3.65661 3.43978 3.93783C3.15856 4.21904 3.0004 4.60034 3 4.99805V19.998C3.0004 20.3958 3.15856 20.7771 3.43978 21.0583C3.721 21.3395 4.1023 21.4977 4.5 21.498H19.5C19.8977 21.4977 20.279 21.3395 20.5602 21.0583C20.8414 20.7771 20.9996 20.3958 21 19.998V4.99805C20.9996 4.60034 20.8414 4.21904 20.5602 3.93783C20.279 3.65661 19.8977 3.49844 19.5 3.49805ZM13.5 4.99805V7.99805H10.5V4.99805H13.5ZM4.5 19.998V4.99805H9V9.49805H15V4.99805H19.5L19.5007 19.998H4.5Z" fill="#E86022"/>
</svg>
