<svg width="16" height="16" viewBox="0 0 16 16" fill="none" xmlns="http://www.w3.org/2000/svg">
<path d="M5.29246 1.63605C5.10499 1.82358 4.99968 2.07788 4.99968 2.34305C4.99968 2.60821 5.10499 2.86252 5.29246 3.05005L10.2425 8.00005L5.29246 12.95C5.11031 13.1387 5.00951 13.3913 5.01179 13.6534C5.01407 13.9156 5.11924 14.1665 5.30464 14.3519C5.49005 14.5373 5.74087 14.6424 6.00306 14.6447C6.26526 14.647 6.51786 14.5462 6.70646 14.364L12.3635 8.70705C12.5509 8.51952 12.6562 8.26521 12.6562 8.00005C12.6562 7.73488 12.5509 7.48058 12.3635 7.29305L6.70646 1.63605C6.51894 1.44858 6.26463 1.34326 5.99946 1.34326C5.7343 1.34326 5.47999 1.44858 5.29246 1.63605Z" fill="#828282"/>
</svg>
