<svg width="16" height="16" viewBox="0 0 16 16" fill="none" xmlns="http://www.w3.org/2000/svg">
<path d="M5.29246 1.636C5.10499 1.82353 4.99968 2.07783 4.99968 2.343C4.99968 2.60816 5.10499 2.86247 5.29246 3.05L10.2425 8L5.29246 12.95C5.11031 13.1386 5.00951 13.3912 5.01179 13.6534C5.01407 13.9156 5.11924 14.1664 5.30464 14.3518C5.49005 14.5372 5.74087 14.6424 6.00306 14.6447C6.26526 14.647 6.51786 14.5462 6.70646 14.364L12.3635 8.707C12.5509 8.51947 12.6562 8.26516 12.6562 8C12.6562 7.73484 12.5509 7.48053 12.3635 7.293L6.70646 1.636C6.51894 1.44853 6.26463 1.34321 5.99946 1.34321C5.7343 1.34321 5.47999 1.44853 5.29246 1.636Z" fill="#828282"/>
</svg>
