<svg width="8" height="8" viewBox="0 0 8 8" fill="none" xmlns="http://www.w3.org/2000/svg">
<g clip-path="url(#clip0_1036_585)">
<path d="M2.40161 0.847595C2.4641 0.910105 2.49921 0.994874 2.49921 1.08326C2.49921 1.17165 2.4641 1.25642 2.40161 1.31893L1.80394 1.9166L4.41594 1.9166C4.94336 1.9166 5.45893 2.07299 5.89746 2.36601C6.336 2.65903 6.67779 3.0755 6.87962 3.56277C7.08146 4.05004 7.13427 4.58622 7.03137 5.1035C6.92848 5.62079 6.6745 6.09594 6.30156 6.46888C5.92862 6.84182 5.45347 7.0958 4.93619 7.19869C4.4189 7.30158 3.88273 7.24878 3.39546 7.04694C2.90819 6.84511 2.49171 6.50331 2.19869 6.06478C1.90568 5.62625 1.74928 5.11068 1.74928 4.58326C1.74928 4.49486 1.7844 4.41007 1.84691 4.34756C1.90942 4.28505 1.99421 4.24993 2.08261 4.24993C2.17102 4.24993 2.2558 4.28505 2.31831 4.34756C2.38083 4.41007 2.41594 4.49486 2.41594 4.58326C2.41594 4.97883 2.53324 5.3655 2.75301 5.6944C2.97277 6.0233 3.28513 6.27965 3.65058 6.43102C4.01603 6.5824 4.41816 6.622 4.80613 6.54483C5.19409 6.46766 5.55045 6.27718 5.83016 5.99748C6.10986 5.71777 6.30034 5.3614 6.37752 4.97344C6.45469 4.58548 6.41508 4.18335 6.2637 3.8179C6.11233 3.45244 5.85598 3.14009 5.52709 2.92032C5.19819 2.70056 4.81151 2.58326 4.41594 2.58326L1.80394 2.58326L2.40161 3.18093C2.46233 3.2438 2.49593 3.328 2.49517 3.4154C2.49441 3.50279 2.45935 3.5864 2.39755 3.6482C2.33575 3.71 2.25214 3.74506 2.16474 3.74582C2.07735 3.74658 1.99315 3.71298 1.93028 3.65226L0.763611 2.4856C0.701121 2.42309 0.666016 2.33832 0.666016 2.24993C0.666016 2.16154 0.701121 2.07677 0.763611 2.01426L1.93028 0.847595C1.99279 0.785105 2.07756 0.75 2.16594 0.75C2.25433 0.75 2.3391 0.785105 2.40161 0.847595Z" fill="#444444"/>
</g>
<defs>
<clipPath id="clip0_1036_585">
<rect width="8" height="8" fill="white"/>
</clipPath>
</defs>
</svg>
