<svg width="64" height="65" viewBox="0 0 64 65" fill="none" xmlns="http://www.w3.org/2000/svg">
<path d="M8 8.99805C8 8.46761 8.21071 7.95891 8.58579 7.58383C8.96086 7.20876 9.46957 6.99805 10 6.99805H54C54.5304 6.99805 55.0391 7.20876 55.4142 7.58383C55.7893 7.95891 56 8.46761 56 8.99805C56 9.52848 55.7893 10.0372 55.4142 10.4123C55.0391 10.7873 54.5304 10.998 54 10.998H48C48 12.11 47.192 12.998 46.18 12.998H45V19.178C46.7 19.638 47.96 21.218 47.96 23.058C47.96 24.45 47.24 25.682 46.154 26.398L47.994 28.998H56.972C57.2405 28.9959 57.499 29.0997 57.6914 29.2869C57.8839 29.4741 57.9947 29.7296 58 29.998C58 30.13 57.9739 30.2607 57.9231 30.3826C57.8724 30.5044 57.798 30.615 57.7043 30.708C57.6106 30.801 57.4994 30.8745 57.3771 30.9242C57.2549 30.974 57.124 30.9991 56.992 30.998H56V36.998H56.972C57.2405 36.9959 57.499 37.0997 57.6914 37.2869C57.8839 37.4741 57.9947 37.7296 58 37.998C57.9947 38.2665 57.8839 38.522 57.6914 38.7092C57.499 38.8964 57.2405 39.0002 56.972 38.998H54.936C54.9637 39.181 54.9394 39.368 54.8658 39.5378C54.7923 39.7075 54.6724 39.8532 54.52 39.958C54.34 40.078 54.14 40.138 53.94 40.138C53.62 40.138 53.32 39.998 53.12 39.718L52.61 38.998H35.31L34.8 39.718C34.6 39.998 34.3 40.138 33.98 40.138C33.78 40.138 33.58 40.078 33.4 39.958C33.2476 39.8532 33.1277 39.7075 33.0542 39.5378C32.9806 39.368 32.9563 39.181 32.984 38.998H31.028C30.7595 39.0002 30.501 38.8964 30.3086 38.7092C30.1161 38.522 30.0053 38.2665 30 37.998C30 37.45 30.464 36.998 31.028 36.998H32V30.998H31.028C30.7595 31.0002 30.501 30.8964 30.3086 30.7092C30.1161 30.522 30.0053 30.2665 30 29.998C30 29.45 30.464 28.998 31.028 28.998H39.928L41.768 26.398C41.2137 26.0345 40.7584 25.539 40.4428 24.9561C40.1272 24.3731 39.9613 23.7209 39.96 23.058C39.96 22.498 40.42 22.058 40.96 22.058C41.52 22.058 41.96 22.498 41.96 23.058C41.96 23.778 42.346 24.414 42.922 24.766L43.092 24.526C43.1357 24.4528 43.1888 24.3855 43.25 24.326C43.3426 24.2319 43.4531 24.1574 43.5751 24.1069C43.6971 24.0564 43.828 24.0309 43.96 24.032C44.22 24.03 44.48 24.132 44.67 24.326C44.7318 24.3854 44.7856 24.4527 44.83 24.526L44.998 24.766C45.574 24.414 45.96 23.778 45.96 23.058C45.96 21.958 45.1 21.078 44 21.058C43.66 21.058 43.34 20.878 43.16 20.598C43.0417 20.443 42.9784 20.253 42.98 20.058C42.98 19.978 42.98 19.918 43 19.838V12.998H41.82C40.808 12.998 40 12.11 40 10.998H28V52.998H29.5C30.88 52.998 32 54.118 32 55.498V56.998H56.02C58.22 56.998 60 58.788 60 60.998H4C4 58.788 5.78 56.998 7.98 56.998H10V55.498C10 54.118 11.12 52.998 12.5 52.998H14V10.998H10C9.46957 10.998 8.96086 10.7873 8.58579 10.4123C8.21071 10.0372 8 9.52848 8 8.99805ZM16 14.998V19.38L24.764 14.998H16ZM17.236 52.998H26V48.616L17.236 52.998ZM24.764 46.998H16V51.38L24.764 46.998ZM17.236 20.998H26V16.616L17.236 20.998ZM24.764 22.998H16V27.38L24.764 22.998ZM17.236 28.998H26V24.616L17.236 28.998ZM24.764 30.998H16V35.38L24.764 30.998ZM17.236 36.998H26V32.616L17.236 36.998ZM24.764 38.998H16V43.38L24.764 38.998ZM17.236 44.998H26V40.616L17.236 44.998ZM43.764 27.054L42.388 28.998H45.532L44.156 27.054C44.0254 27.0605 43.8946 27.0605 43.764 27.054ZM38.51 30.998H34V36.998H34.264L38.51 30.998ZM36.726 36.998H51.194L46.948 30.998H40.972L36.726 36.998ZM49.408 30.998L53.656 36.998H54V30.998H49.408Z" fill="white"/>
</svg>
