<svg width="68" height="61" viewBox="0 0 68 61" fill="none" xmlns="http://www.w3.org/2000/svg">
<g clip-path="url(#clip0_967_519)">
<path d="M0.828125 47.2558C0.828125 47.2558 50.2763 -19.5645 51.399 47.2558H67.9977C67.9977 47.2558 68.682 -6.58487 44.6654 1.10593C20.6488 8.79672 0.828125 47.2558 0.828125 47.2558Z" fill="#DC3832"/>
<path d="M2.81575 47.2559C2.81575 47.2559 38.7087 13.6264 35.6704 47.2559H48.1948C48.1948 47.2559 48.156 24.9466 32.8714 27.1558C17.5868 29.365 2.81445 47.2559 2.81445 47.2559H2.81575Z" fill="#DC3832"/>
<path d="M2.30897 54.1112H0.0622613C0.00405652 54.1112 -0.00758444 54.0763 0.00405652 54.0181L0.143748 53.0053C0.155389 52.9471 0.178671 52.9238 0.248517 52.9238H5.73141C5.80125 52.9238 5.82453 52.9471 5.83618 53.017L5.94094 54.0064C5.95259 54.0763 5.91766 54.1112 5.85946 54.1112H3.62439V60.4322C3.62439 60.5021 3.58947 60.537 3.53127 60.537H2.41373C2.34389 60.5487 2.30897 60.5137 2.30897 60.4439V54.1112Z" fill="#333333"/>
<path d="M11.669 60.537C11.6108 60.537 11.5875 60.5137 11.5875 60.4439V57.1728H8.45613V60.4439C8.45613 60.5021 8.43285 60.537 8.363 60.537H7.24547C7.17563 60.537 7.15234 60.5137 7.15234 60.4439V53.017C7.15234 52.9471 7.17563 52.9238 7.24547 52.9238H8.363C8.43285 52.9238 8.45613 52.9471 8.45613 53.0053V55.9854H11.5875V53.0053C11.5875 52.9471 11.6108 52.9238 11.669 52.9238H12.8215C12.8681 52.9238 12.8913 52.9471 12.8913 53.0053V60.4439C12.8913 60.5137 12.8797 60.537 12.8098 60.537H11.669Z" fill="#333333"/>
<path d="M16.0563 58.4533L15.4161 60.4555C15.4045 60.5137 15.3695 60.537 15.2997 60.537H14.2287C14.1472 60.537 14.1239 60.5021 14.1472 60.4322L16.4405 53.5874C16.4754 53.471 16.5103 53.3662 16.522 52.9937C16.522 52.9471 16.5453 52.9238 16.5918 52.9238H18.1052C18.1634 52.9238 18.175 52.9355 18.1866 52.982L20.736 60.4439C20.7593 60.5021 20.7477 60.537 20.6778 60.537H19.4671C19.4089 60.537 19.3857 60.5137 19.3624 60.4672L18.6988 58.4533H16.0563ZM18.3613 57.2659C18.1284 56.486 17.5813 54.8446 17.3718 54.0297H17.3601C17.1739 54.798 16.7432 56.1717 16.3939 57.2659H18.3613Z" fill="#333333"/>
<path d="M22.0873 60.537C22.0174 60.537 21.9941 60.5254 21.9941 60.4439V53.0053C21.9941 52.9471 22.0058 52.9238 22.064 52.9238H23.589C23.6704 52.9238 23.6821 52.9355 23.717 53.0053C24.5435 54.5303 26.3013 57.9062 26.6738 58.7443H26.6854C26.6738 58.4067 26.6505 57.9527 26.6505 56.9283V53.017C26.6505 52.9471 26.6738 52.9238 26.7437 52.9238H27.7913C27.8612 52.9238 27.8845 52.9471 27.8845 53.017V60.4322C27.8845 60.5137 27.8612 60.537 27.7681 60.537H26.4061C26.3246 60.537 26.2897 60.5254 26.2547 60.4555C25.6843 59.2682 23.589 55.4383 23.1699 54.344H23.1582C23.2048 54.9028 23.2164 55.4732 23.2164 56.4976V60.4439C23.2164 60.5137 23.1932 60.537 23.135 60.537H22.0873Z" fill="#333333"/>
<path d="M34.4503 60.537C34.3921 60.537 34.3688 60.5137 34.3688 60.4439V57.1728H31.2374V60.4439C31.2374 60.5021 31.2141 60.537 31.1443 60.537H30.0267C29.9569 60.537 29.9336 60.5137 29.9336 60.4439V53.017C29.9336 52.9471 29.9569 52.9238 30.0267 52.9238H31.1443C31.2141 52.9238 31.2374 52.9471 31.2374 53.0053V55.9854H34.3688V53.0053C34.3688 52.9471 34.3921 52.9238 34.4503 52.9238H35.6027C35.6493 52.9238 35.6726 52.9471 35.6726 53.0053V60.4439C35.6726 60.5137 35.6609 60.537 35.5911 60.537H34.4503Z" fill="#333333"/>
<path d="M40.7005 60.537C40.6191 60.537 40.6074 60.5021 40.6074 60.4206V53.017C40.6074 52.9588 40.6191 52.9238 40.6889 52.9238H41.8414C41.8996 52.9238 41.9112 52.9471 41.9112 53.0053V59.3496H45.194C45.2522 59.3496 45.2754 59.3846 45.2638 59.4311L45.0892 60.4555C45.0775 60.5254 45.031 60.537 44.9844 60.537H40.7005Z" fill="#333333"/>
<path d="M52.7358 56.6722C52.7475 59.1401 51.3622 60.6417 49.3367 60.6417C47.2064 60.6417 45.9375 59.0353 45.9375 56.7071C45.9375 54.3789 47.3228 52.8074 49.3483 52.8074C51.4902 52.8074 52.7242 54.4953 52.7358 56.6722ZM49.3832 59.4776C50.6521 59.4776 51.3855 58.3834 51.3855 56.7071C51.3738 55.0424 50.6172 53.9831 49.325 53.9831C48.1493 53.9831 47.2879 54.926 47.2879 56.7071C47.2879 58.2553 48.0096 59.4776 49.3832 59.4776Z" fill="#333333"/>
<path d="M54.4584 60.537C54.3885 60.537 54.3652 60.5254 54.3652 60.4439V53.0053C54.3652 52.9471 54.3769 52.9238 54.4351 52.9238H55.96C56.0415 52.9238 56.0532 52.9355 56.0881 53.0053C56.9146 54.5303 58.6724 57.9062 59.0449 58.7443H59.0565C59.0449 58.4067 59.0216 57.9527 59.0216 56.9283V53.017C59.0216 52.9471 59.0449 52.9238 59.1147 52.9238H60.1624C60.2323 52.9238 60.2556 52.9471 60.2556 53.017V60.4322C60.2556 60.5137 60.2323 60.537 60.1391 60.537H58.7772C58.6957 60.537 58.6607 60.5254 58.6258 60.4555C58.0554 59.2682 55.96 55.4383 55.541 54.344H55.5293C55.5759 54.9028 55.5875 55.4732 55.5875 56.4976V60.4439C55.5875 60.5137 55.5643 60.537 55.506 60.537H54.4584Z" fill="#333333"/>
<path d="M65.4022 57.4521C65.3324 57.4405 65.3207 57.4172 65.3207 57.359V56.3928C65.3207 56.3346 65.344 56.3113 65.3906 56.3113H67.905C67.9865 56.3113 67.9981 56.3462 67.9981 56.4044V60.1761C67.9981 60.2343 67.9865 60.2576 67.9283 60.2809C67.16 60.5719 66.415 60.6417 65.7747 60.6417C63.1555 60.6417 61.875 58.9305 61.875 56.7769C61.875 54.344 63.528 52.8074 65.9843 52.8074C66.706 52.8074 67.3462 52.8889 67.742 53.0751C67.7886 53.0984 67.8119 53.1333 67.8119 53.2032V54.2509C67.8119 54.3207 67.7653 54.3323 67.7188 54.3091C67.2298 54.0646 66.6594 53.9948 66.0075 53.9831C64.2032 53.9715 63.2254 55.0075 63.2254 56.7304C63.2254 58.3019 64.1217 59.4893 65.8329 59.4893C66.2054 59.4893 66.4615 59.4544 66.6827 59.3845V57.487L65.4022 57.4521Z" fill="#333333"/>
</g>
<defs>
<clipPath id="clip0_967_519">
<rect width="68" height="60.2872" fill="white" transform="translate(0 0.354492)"/>
</clipPath>
</defs>
</svg>
