<svg width="68" height="62" viewBox="0 0 68 62" fill="none" xmlns="http://www.w3.org/2000/svg">
<g clip-path="url(#clip0_1113_525)">
<path d="M0.828125 47.7578C0.828125 47.7578 50.2763 -19.0626 51.399 47.7578H67.9977C67.9977 47.7578 68.682 -6.08291 44.6654 1.60788C20.6488 9.29867 0.828125 47.7578 0.828125 47.7578Z" fill="#DC3832"/>
<path d="M2.81575 47.7578C2.81575 47.7578 38.7087 14.1284 35.6704 47.7578H48.1948C48.1948 47.7578 48.156 25.4486 32.8714 27.6578C17.5868 29.867 2.81445 47.7578 2.81445 47.7578H2.81575Z" fill="#DC3832"/>
<path d="M2.30897 54.6132H0.0622613C0.00405652 54.6132 -0.00758444 54.5782 0.00405652 54.52L0.143748 53.5073C0.155389 53.4491 0.178671 53.4258 0.248517 53.4258H5.73141C5.80125 53.4258 5.82453 53.4491 5.83618 53.5189L5.94094 54.5084C5.95259 54.5782 5.91766 54.6132 5.85946 54.6132H3.62439V60.9342C3.62439 61.004 3.58947 61.039 3.53127 61.039H2.41373C2.34389 61.0506 2.30897 61.0157 2.30897 60.9458V54.6132Z" fill="#333333"/>
<path d="M11.669 61.039C11.6108 61.039 11.5875 61.0157 11.5875 60.9458V57.6747H8.45613V60.9458C8.45613 61.004 8.43285 61.039 8.363 61.039H7.24547C7.17563 61.039 7.15234 61.0157 7.15234 60.9458V53.5189C7.15234 53.4491 7.17563 53.4258 7.24547 53.4258H8.363C8.43285 53.4258 8.45613 53.4491 8.45613 53.5073V56.4874H11.5875V53.5073C11.5875 53.4491 11.6108 53.4258 11.669 53.4258H12.8215C12.8681 53.4258 12.8913 53.4491 12.8913 53.5073V60.9458C12.8913 61.0157 12.8797 61.039 12.8098 61.039H11.669Z" fill="#333333"/>
<path d="M16.0563 58.9552L15.4161 60.9575C15.4045 61.0157 15.3695 61.039 15.2997 61.039H14.2287C14.1472 61.039 14.1239 61.004 14.1472 60.9342L16.4405 54.0893C16.4754 53.9729 16.5103 53.8681 16.522 53.4956C16.522 53.4491 16.5453 53.4258 16.5918 53.4258H18.1052C18.1634 53.4258 18.175 53.4374 18.1866 53.484L20.736 60.9458C20.7593 61.004 20.7477 61.039 20.6778 61.039H19.4671C19.4089 61.039 19.3857 61.0157 19.3624 60.9691L18.6988 58.9552H16.0563ZM18.3613 57.7679C18.1284 56.9879 17.5813 55.3465 17.3718 54.5317H17.3601C17.1739 55.3 16.7432 56.6736 16.3939 57.7679H18.3613Z" fill="#333333"/>
<path d="M22.0873 61.039C22.0174 61.039 21.9941 61.0273 21.9941 60.9458V53.5073C21.9941 53.4491 22.0058 53.4258 22.064 53.4258H23.589C23.6704 53.4258 23.6821 53.4374 23.717 53.5073C24.5435 55.0322 26.3013 58.4081 26.6738 59.2463H26.6854C26.6738 58.9087 26.6505 58.4547 26.6505 57.4303V53.5189C26.6505 53.4491 26.6738 53.4258 26.7437 53.4258H27.7913C27.8612 53.4258 27.8845 53.4491 27.8845 53.5189V60.9342C27.8845 61.0157 27.8612 61.039 27.7681 61.039H26.4061C26.3246 61.039 26.2897 61.0273 26.2547 60.9575C25.6843 59.7701 23.589 55.9402 23.1699 54.846H23.1582C23.2048 55.4047 23.2164 55.9752 23.2164 56.9996V60.9458C23.2164 61.0157 23.1932 61.039 23.135 61.039H22.0873Z" fill="#333333"/>
<path d="M34.4503 61.039C34.3921 61.039 34.3688 61.0157 34.3688 60.9458V57.6747H31.2374V60.9458C31.2374 61.004 31.2141 61.039 31.1443 61.039H30.0267C29.9569 61.039 29.9336 61.0157 29.9336 60.9458V53.5189C29.9336 53.4491 29.9569 53.4258 30.0267 53.4258H31.1443C31.2141 53.4258 31.2374 53.4491 31.2374 53.5073V56.4874H34.3688V53.5073C34.3688 53.4491 34.3921 53.4258 34.4503 53.4258H35.6027C35.6493 53.4258 35.6726 53.4491 35.6726 53.5073V60.9458C35.6726 61.0157 35.6609 61.039 35.5911 61.039H34.4503Z" fill="#333333"/>
<path d="M40.7005 61.039C40.6191 61.039 40.6074 61.004 40.6074 60.9226V53.5189C40.6074 53.4607 40.6191 53.4258 40.6889 53.4258H41.8414C41.8996 53.4258 41.9112 53.4491 41.9112 53.5073V59.8516H45.194C45.2522 59.8516 45.2754 59.8865 45.2638 59.9331L45.0892 60.9575C45.0775 61.0273 45.031 61.039 44.9844 61.039H40.7005Z" fill="#333333"/>
<path d="M52.7358 57.1741C52.7475 59.642 51.3622 61.1437 49.3367 61.1437C47.2064 61.1437 45.9375 59.5372 45.9375 57.209C45.9375 54.8809 47.3228 53.3093 49.3483 53.3093C51.4902 53.3093 52.7242 54.9973 52.7358 57.1741ZM49.3832 59.9796C50.6521 59.9796 51.3855 58.8853 51.3855 57.209C51.3738 55.5444 50.6172 54.4851 49.325 54.4851C48.1493 54.4851 47.2879 55.428 47.2879 57.209C47.2879 58.7573 48.0096 59.9796 49.3832 59.9796Z" fill="#333333"/>
<path d="M54.4584 61.039C54.3885 61.039 54.3652 61.0273 54.3652 60.9458V53.5073C54.3652 53.4491 54.3769 53.4258 54.4351 53.4258H55.96C56.0415 53.4258 56.0532 53.4374 56.0881 53.5073C56.9146 55.0322 58.6724 58.4081 59.0449 59.2463H59.0565C59.0449 58.9087 59.0216 58.4547 59.0216 57.4303V53.5189C59.0216 53.4491 59.0449 53.4258 59.1147 53.4258H60.1624C60.2323 53.4258 60.2556 53.4491 60.2556 53.5189V60.9342C60.2556 61.0157 60.2323 61.039 60.1391 61.039H58.7772C58.6957 61.039 58.6607 61.0273 58.6258 60.9575C58.0554 59.7701 55.96 55.9402 55.541 54.846H55.5293C55.5759 55.4047 55.5875 55.9752 55.5875 56.9996V60.9458C55.5875 61.0157 55.5643 61.039 55.506 61.039H54.4584Z" fill="#333333"/>
<path d="M65.4022 57.9541C65.3324 57.9424 65.3207 57.9191 65.3207 57.8609V56.8947C65.3207 56.8365 65.344 56.8133 65.3906 56.8133H67.905C67.9865 56.8133 67.9981 56.8482 67.9981 56.9064V60.6781C67.9981 60.7363 67.9865 60.7595 67.9283 60.7828C67.16 61.0738 66.415 61.1437 65.7747 61.1437C63.1555 61.1437 61.875 59.4325 61.875 57.2789C61.875 54.8459 63.528 53.3093 65.9843 53.3093C66.706 53.3093 67.3462 53.3908 67.742 53.5771C67.7886 53.6004 67.8119 53.6353 67.8119 53.7051V54.7528C67.8119 54.8227 67.7653 54.8343 67.7188 54.811C67.2298 54.5666 66.6594 54.4967 66.0075 54.4851C64.2032 54.4734 63.2254 55.5095 63.2254 57.2323C63.2254 58.8039 64.1217 59.9912 65.8329 59.9912C66.2054 59.9912 66.4615 59.9563 66.6827 59.8865V57.989L65.4022 57.9541Z" fill="#333333"/>
</g>
<defs>
<clipPath id="clip0_1113_525">
<rect width="68" height="60.2872" fill="white" transform="translate(0 0.856445)"/>
</clipPath>
</defs>
</svg>
