<svg width="68" height="61" viewBox="0 0 68 61" fill="none" xmlns="http://www.w3.org/2000/svg">
<g clip-path="url(#clip0_1113_216)">
<path d="M0.828125 47.2558C0.828125 47.2558 50.2763 -19.5645 51.399 47.2558H67.9977C67.9977 47.2558 68.682 -6.58487 44.6654 1.10593C20.6488 8.79672 0.828125 47.2558 0.828125 47.2558Z" fill="#DC3832"/>
<path d="M2.81575 47.2559C2.81575 47.2559 38.7087 13.6264 35.6704 47.2559H48.1948C48.1948 47.2559 48.156 24.9466 32.8714 27.1558C17.5868 29.365 2.81445 47.2559 2.81445 47.2559H2.81575Z" fill="#DC3832"/>
<path d="M2.30897 54.1111H0.0622613C0.00405652 54.1111 -0.00758444 54.0762 0.00405652 54.018L0.143748 53.0052C0.155389 52.947 0.178671 52.9237 0.248517 52.9237H5.73141C5.80125 52.9237 5.82453 52.947 5.83618 53.0168L5.94094 54.0063C5.95259 54.0762 5.91766 54.1111 5.85946 54.1111H3.62439V60.4321C3.62439 60.502 3.58947 60.5369 3.53127 60.5369H2.41373C2.34389 60.5485 2.30897 60.5136 2.30897 60.4438V54.1111Z" fill="#333333"/>
<path d="M11.669 60.5369C11.6108 60.5369 11.5875 60.5136 11.5875 60.4438V57.1727H8.45613V60.4438C8.45613 60.502 8.43285 60.5369 8.363 60.5369H7.24547C7.17563 60.5369 7.15234 60.5136 7.15234 60.4438V53.0168C7.15234 52.947 7.17563 52.9237 7.24547 52.9237H8.363C8.43285 52.9237 8.45613 52.947 8.45613 53.0052V55.9853H11.5875V53.0052C11.5875 52.947 11.6108 52.9237 11.669 52.9237H12.8215C12.8681 52.9237 12.8913 52.947 12.8913 53.0052V60.4438C12.8913 60.5136 12.8797 60.5369 12.8098 60.5369H11.669Z" fill="#333333"/>
<path d="M16.0563 58.4532L15.4161 60.4554C15.4045 60.5136 15.3695 60.5369 15.2997 60.5369H14.2287C14.1472 60.5369 14.1239 60.502 14.1472 60.4321L16.4405 53.5872C16.4754 53.4708 16.5103 53.3661 16.522 52.9936C16.522 52.947 16.5453 52.9237 16.5918 52.9237H18.1052C18.1634 52.9237 18.175 52.9353 18.1866 52.9819L20.736 60.4438C20.7593 60.502 20.7477 60.5369 20.6778 60.5369H19.4671C19.4089 60.5369 19.3857 60.5136 19.3624 60.467L18.6988 58.4532H16.0563ZM18.3613 57.2658C18.1284 56.4858 17.5813 54.8445 17.3718 54.0296H17.3601C17.1739 54.7979 16.7432 56.1715 16.3939 57.2658H18.3613Z" fill="#333333"/>
<path d="M22.0873 60.5369C22.0174 60.5369 21.9941 60.5253 21.9941 60.4438V53.0052C21.9941 52.947 22.0058 52.9237 22.064 52.9237H23.589C23.6704 52.9237 23.6821 52.9353 23.717 53.0052C24.5435 54.5302 26.3013 57.906 26.6738 58.7442H26.6854C26.6738 58.4066 26.6505 57.9526 26.6505 56.9282V53.0168C26.6505 52.947 26.6738 52.9237 26.7437 52.9237H27.7913C27.8612 52.9237 27.8845 52.947 27.8845 53.0168V60.4321C27.8845 60.5136 27.8612 60.5369 27.7681 60.5369H26.4061C26.3246 60.5369 26.2897 60.5253 26.2547 60.4554C25.6843 59.268 23.589 55.4382 23.1699 54.3439H23.1582C23.2048 54.9027 23.2164 55.4731 23.2164 56.4975V60.4438C23.2164 60.5136 23.1932 60.5369 23.135 60.5369H22.0873Z" fill="#333333"/>
<path d="M34.4503 60.5369C34.3921 60.5369 34.3688 60.5136 34.3688 60.4438V57.1727H31.2374V60.4438C31.2374 60.502 31.2141 60.5369 31.1443 60.5369H30.0267C29.9569 60.5369 29.9336 60.5136 29.9336 60.4438V53.0168C29.9336 52.947 29.9569 52.9237 30.0267 52.9237H31.1443C31.2141 52.9237 31.2374 52.947 31.2374 53.0052V55.9853H34.3688V53.0052C34.3688 52.947 34.3921 52.9237 34.4503 52.9237H35.6027C35.6493 52.9237 35.6726 52.947 35.6726 53.0052V60.4438C35.6726 60.5136 35.6609 60.5369 35.5911 60.5369H34.4503Z" fill="#333333"/>
<path d="M40.7005 60.5369C40.6191 60.5369 40.6074 60.502 40.6074 60.4205V53.0168C40.6074 52.9586 40.6191 52.9237 40.6889 52.9237H41.8414C41.8996 52.9237 41.9112 52.947 41.9112 53.0052V59.3495H45.194C45.2522 59.3495 45.2754 59.3844 45.2638 59.431L45.0892 60.4554C45.0775 60.5253 45.031 60.5369 44.9844 60.5369H40.7005Z" fill="#333333"/>
<path d="M52.7358 56.6722C52.7475 59.1401 51.3622 60.6417 49.3367 60.6417C47.2064 60.6417 45.9375 59.0353 45.9375 56.7071C45.9375 54.3789 47.3228 52.8074 49.3483 52.8074C51.4902 52.8074 52.7242 54.4953 52.7358 56.6722ZM49.3832 59.4776C50.6521 59.4776 51.3855 58.3834 51.3855 56.7071C51.3738 55.0424 50.6172 53.9831 49.325 53.9831C48.1493 53.9831 47.2879 54.926 47.2879 56.7071C47.2879 58.2553 48.0096 59.4776 49.3832 59.4776Z" fill="#333333"/>
<path d="M54.4584 60.5369C54.3885 60.5369 54.3652 60.5253 54.3652 60.4438V53.0052C54.3652 52.947 54.3769 52.9237 54.4351 52.9237H55.96C56.0415 52.9237 56.0532 52.9353 56.0881 53.0052C56.9146 54.5302 58.6724 57.906 59.0449 58.7442H59.0565C59.0449 58.4066 59.0216 57.9526 59.0216 56.9282V53.0168C59.0216 52.947 59.0449 52.9237 59.1147 52.9237H60.1624C60.2323 52.9237 60.2556 52.947 60.2556 53.0168V60.4321C60.2556 60.5136 60.2323 60.5369 60.1391 60.5369H58.7772C58.6957 60.5369 58.6607 60.5253 58.6258 60.4554C58.0554 59.268 55.96 55.4382 55.541 54.3439H55.5293C55.5759 54.9027 55.5875 55.4731 55.5875 56.4975V60.4438C55.5875 60.5136 55.5643 60.5369 55.506 60.5369H54.4584Z" fill="#333333"/>
<path d="M65.4022 57.4521C65.3324 57.4405 65.3207 57.4172 65.3207 57.359V56.3928C65.3207 56.3346 65.344 56.3113 65.3906 56.3113H67.905C67.9865 56.3113 67.9981 56.3462 67.9981 56.4044V60.1761C67.9981 60.2343 67.9865 60.2576 67.9283 60.2809C67.16 60.5719 66.415 60.6417 65.7747 60.6417C63.1555 60.6417 61.875 58.9305 61.875 56.7769C61.875 54.344 63.528 52.8074 65.9843 52.8074C66.706 52.8074 67.3462 52.8889 67.742 53.0751C67.7886 53.0984 67.8119 53.1333 67.8119 53.2032V54.2509C67.8119 54.3207 67.7653 54.3323 67.7188 54.3091C67.2298 54.0646 66.6594 53.9948 66.0075 53.9831C64.2032 53.9715 63.2254 55.0075 63.2254 56.7304C63.2254 58.3019 64.1217 59.4893 65.8329 59.4893C66.2054 59.4893 66.4615 59.4544 66.6827 59.3845V57.487L65.4022 57.4521Z" fill="#333333"/>
</g>
<defs>
<clipPath id="clip0_1113_216">
<rect width="68" height="60.2872" fill="white" transform="translate(0 0.354492)"/>
</clipPath>
</defs>
</svg>
