<svg width="24" height="24" viewBox="0 0 24 24" fill="none" xmlns="http://www.w3.org/2000/svg">
<path d="M20.2502 9.99999C20.2502 9.83584 20.2178 9.67329 20.155 9.52163C20.0922 9.36998 20.0001 9.23218 19.884 9.11611C19.768 9.00003 19.6302 8.90796 19.4785 8.84514C19.3269 8.78232 19.1643 8.74999 19.0002 8.74999C18.836 8.74999 18.6735 8.78232 18.5218 8.84514C18.3702 8.90796 18.2324 9.00003 18.1163 9.11611C18.0002 9.23218 17.9081 9.36998 17.8453 9.52163C17.7825 9.67329 17.7502 9.83584 17.7502 9.99999H20.2502ZM6.25016 9.99999C6.25016 9.66847 6.11847 9.35053 5.88405 9.11611C5.64963 8.88169 5.33169 8.74999 5.00016 8.74999C4.66864 8.74999 4.3507 8.88169 4.11628 9.11611C3.88186 9.35053 3.75016 9.66847 3.75016 9.99999H6.25016ZM20.1162 12.884C20.3506 13.1184 20.6686 13.2502 21.0002 13.2502C21.3317 13.2502 21.6497 13.1184 21.8842 12.884C22.1186 12.6495 22.2503 12.3316 22.2503 12C22.2503 11.6684 22.1186 11.3504 21.8842 11.116L20.1162 12.884ZM12.0002 2.99999L12.8842 2.11599C12.7681 1.99988 12.6303 1.90778 12.4786 1.84494C12.3269 1.7821 12.1643 1.74976 12.0002 1.74976C11.836 1.74976 11.6734 1.7821 11.5217 1.84494C11.3701 1.90778 11.2322 1.99988 11.1162 2.11599L12.0002 2.99999ZM2.11616 11.116C1.88171 11.3504 1.75 11.6684 1.75 12C1.75 12.3316 1.88171 12.6495 2.11616 12.884C2.35062 13.1184 2.6686 13.2502 3.00016 13.2502C3.33173 13.2502 3.64971 13.1184 3.88416 12.884L2.11616 11.116ZM7.00016 22.25H17.0002V19.75H7.00016V22.25ZM20.2502 19V9.99999H17.7502V19H20.2502ZM6.25016 19V9.99999H3.75016V19H6.25016ZM21.8842 11.116L12.8842 2.11599L11.1162 3.88399L20.1162 12.884L21.8842 11.116ZM11.1162 2.11599L2.11616 11.116L3.88416 12.884L12.8842 3.88399L11.1162 2.11599ZM17.0002 22.25C17.8621 22.25 18.6888 21.9076 19.2983 21.2981C19.9078 20.6886 20.2502 19.8619 20.2502 19H17.7502C17.7502 19.1989 17.6711 19.3897 17.5305 19.5303C17.3898 19.671 17.1991 19.75 17.0002 19.75V22.25ZM7.00016 19.75C6.80125 19.75 6.61049 19.671 6.46983 19.5303C6.32918 19.3897 6.25016 19.1989 6.25016 19H3.75016C3.75016 19.8619 4.09257 20.6886 4.70207 21.2981C5.31156 21.9076 6.13821 22.25 7.00016 22.25V19.75Z" fill="#828282"/>
</svg>
