<svg width="24" height="24" viewBox="0 0 24 24" fill="none" xmlns="http://www.w3.org/2000/svg">
<path d="M20.2502 10C20.2502 9.83585 20.2178 9.6733 20.155 9.52165C20.0922 9.36999 20.0001 9.23219 19.884 9.11612C19.768 9.00004 19.6302 8.90797 19.4785 8.84515C19.3269 8.78233 19.1643 8.75 19.0002 8.75C18.836 8.75 18.6735 8.78233 18.5218 8.84515C18.3702 8.90797 18.2324 9.00004 18.1163 9.11612C18.0002 9.23219 17.9081 9.36999 17.8453 9.52165C17.7825 9.6733 17.7502 9.83585 17.7502 10H20.2502ZM6.25016 10C6.25016 9.66848 6.11847 9.35054 5.88405 9.11612C5.64963 8.8817 5.33169 8.75 5.00016 8.75C4.66864 8.75 4.3507 8.8817 4.11628 9.11612C3.88186 9.35054 3.75016 9.66848 3.75016 10H6.25016ZM20.1162 12.884C20.3506 13.1185 20.6686 13.2502 21.0002 13.2502C21.3317 13.2502 21.6497 13.1185 21.8842 12.884C22.1186 12.6495 22.2503 12.3316 22.2503 12C22.2503 11.6684 22.1186 11.3505 21.8842 11.116L20.1162 12.884ZM12.0002 3L12.8842 2.116C12.7681 1.99989 12.6303 1.90779 12.4786 1.84495C12.3269 1.78211 12.1643 1.74977 12.0002 1.74977C11.836 1.74977 11.6734 1.78211 11.5217 1.84495C11.3701 1.90779 11.2322 1.99989 11.1162 2.116L12.0002 3ZM2.11616 11.116C1.88171 11.3505 1.75 11.6684 1.75 12C1.75 12.3316 1.88171 12.6495 2.11616 12.884C2.35062 13.1185 2.6686 13.2502 3.00016 13.2502C3.33173 13.2502 3.64971 13.1185 3.88416 12.884L2.11616 11.116ZM7.00016 22.25H17.0002V19.75H7.00016V22.25ZM20.2502 19V10H17.7502V19H20.2502ZM6.25016 19V10H3.75016V19H6.25016ZM21.8842 11.116L12.8842 2.116L11.1162 3.884L20.1162 12.884L21.8842 11.116ZM11.1162 2.116L2.11616 11.116L3.88416 12.884L12.8842 3.884L11.1162 2.116ZM17.0002 22.25C17.8621 22.25 18.6888 21.9076 19.2983 21.2981C19.9078 20.6886 20.2502 19.862 20.2502 19H17.7502C17.7502 19.1989 17.6711 19.3897 17.5305 19.5303C17.3898 19.671 17.1991 19.75 17.0002 19.75V22.25ZM7.00016 19.75C6.80125 19.75 6.61049 19.671 6.46983 19.5303C6.32918 19.3897 6.25016 19.1989 6.25016 19H3.75016C3.75016 19.862 4.09257 20.6886 4.70207 21.2981C5.31156 21.9076 6.13821 22.25 7.00016 22.25V19.75Z" fill="#828282"/>
</svg>
