<svg width="24" height="24" viewBox="0 0 24 24" fill="none" xmlns="http://www.w3.org/2000/svg">
<path d="M20.2502 10.0002C20.2502 9.83608 20.2178 9.67354 20.155 9.52188C20.0922 9.37022 20.0001 9.23242 19.884 9.11635C19.768 9.00028 19.6302 8.9082 19.4785 8.84538C19.3269 8.78257 19.1643 8.75023 19.0002 8.75023C18.836 8.75023 18.6735 8.78257 18.5218 8.84538C18.3702 8.9082 18.2324 9.00028 18.1163 9.11635C18.0002 9.23242 17.9081 9.37022 17.8453 9.52188C17.7825 9.67354 17.7502 9.83608 17.7502 10.0002H20.2502ZM6.25016 10.0002C6.25016 9.66871 6.11847 9.35077 5.88405 9.11635C5.64963 8.88193 5.33169 8.75023 5.00016 8.75023C4.66864 8.75023 4.3507 8.88193 4.11628 9.11635C3.88186 9.35077 3.75016 9.66871 3.75016 10.0002H6.25016ZM20.1162 12.8842C20.3506 13.1187 20.6686 13.2504 21.0002 13.2504C21.3317 13.2504 21.6497 13.1187 21.8842 12.8842C22.1186 12.6498 22.2503 12.3318 22.2503 12.0002C22.2503 11.6687 22.1186 11.3507 21.8842 11.1162L20.1162 12.8842ZM12.0002 3.00023L12.8842 2.11623C12.7681 2.00012 12.6303 1.90802 12.4786 1.84518C12.3269 1.78234 12.1643 1.75 12.0002 1.75C11.836 1.75 11.6734 1.78234 11.5217 1.84518C11.3701 1.90802 11.2322 2.00012 11.1162 2.11623L12.0002 3.00023ZM2.11616 11.1162C1.88171 11.3507 1.75 11.6687 1.75 12.0002C1.75 12.3318 1.88171 12.6498 2.11616 12.8842C2.35062 13.1187 2.6686 13.2504 3.00016 13.2504C3.33173 13.2504 3.64971 13.1187 3.88416 12.8842L2.11616 11.1162ZM7.00016 22.2502H17.0002V19.7502H7.00016V22.2502ZM20.2502 19.0002V10.0002H17.7502V19.0002H20.2502ZM6.25016 19.0002V10.0002H3.75016V19.0002H6.25016ZM21.8842 11.1162L12.8842 2.11623L11.1162 3.88423L20.1162 12.8842L21.8842 11.1162ZM11.1162 2.11623L2.11616 11.1162L3.88416 12.8842L12.8842 3.88423L11.1162 2.11623ZM17.0002 22.2502C17.8621 22.2502 18.6888 21.9078 19.2983 21.2983C19.9078 20.6888 20.2502 19.8622 20.2502 19.0002H17.7502C17.7502 19.1991 17.6711 19.3899 17.5305 19.5306C17.3898 19.6712 17.1991 19.7502 17.0002 19.7502V22.2502ZM7.00016 19.7502C6.80125 19.7502 6.61049 19.6712 6.46983 19.5306C6.32918 19.3899 6.25016 19.1991 6.25016 19.0002H3.75016C3.75016 19.8622 4.09257 20.6888 4.70207 21.2983C5.31156 21.9078 6.13821 22.2502 7.00016 22.2502V19.7502Z" fill="#828282"/>
</svg>
