<svg width="16" height="16" viewBox="0 0 16 16" fill="none" xmlns="http://www.w3.org/2000/svg">
<path d="M7.99935 8.00016C7.26602 8.00016 6.66602 7.40016 6.66602 6.66683C6.66602 5.9335 7.26602 5.3335 7.99935 5.3335C8.73268 5.3335 9.33268 5.9335 9.33268 6.66683C9.33268 7.40016 8.73268 8.00016 7.99935 8.00016ZM11.9993 6.80016C11.9993 4.38016 10.2327 2.66683 7.99935 2.66683C5.76602 2.66683 3.99935 4.38016 3.99935 6.80016C3.99935 8.36016 5.29935 10.4268 7.99935 12.8935C10.6993 10.4268 11.9993 8.36016 11.9993 6.80016ZM7.99935 1.3335C10.7993 1.3335 13.3327 3.48016 13.3327 6.80016C13.3327 9.0135 11.5527 11.6335 7.99935 14.6668C4.44602 11.6335 2.66602 9.0135 2.66602 6.80016C2.66602 3.48016 5.19935 1.3335 7.99935 1.3335Z" fill="#333333"/>
</svg>
