<svg width="16" height="16" viewBox="0 0 16 16" fill="none" xmlns="http://www.w3.org/2000/svg">
<path d="M13.5792 3.88281L9.46185 8.00014L13.5579 12.0961C13.6542 12.1866 13.7312 12.2956 13.7843 12.4166C13.8375 12.5376 13.8657 12.668 13.8672 12.8001C13.8672 13.083 13.7548 13.3544 13.5548 13.5544C13.3547 13.7544 13.0834 13.8668 12.8005 13.8668C12.6697 13.8693 12.5398 13.845 12.4188 13.7955C12.2977 13.746 12.1881 13.6722 12.0965 13.5788L8.00052 9.42947L3.85119 13.5788C3.6792 13.7546 3.44629 13.8577 3.20052 13.8668C2.91762 13.8668 2.64631 13.7544 2.44627 13.5544C2.24623 13.3543 2.13385 13.083 2.13385 12.8001C2.12821 12.6642 2.1509 12.5286 2.20048 12.4019C2.25006 12.2752 2.32545 12.1602 2.42185 12.0641L6.53919 8.00014L2.43252 3.89347C2.33943 3.80335 2.26511 3.69568 2.21385 3.57668C2.16259 3.45768 2.1354 3.3297 2.13385 3.20014C2.13385 2.91724 2.24623 2.64593 2.44627 2.44589C2.64631 2.24585 2.91762 2.13347 3.20052 2.13347C3.3313 2.13099 3.4612 2.15525 3.58226 2.20478C3.70332 2.2543 3.81298 2.32804 3.90452 2.42147L8.00052 6.57081L12.1499 2.42147C12.3218 2.24567 12.5547 2.14258 12.8005 2.13347C13.0834 2.13347 13.3547 2.24585 13.5548 2.44589C13.7548 2.64593 13.8672 2.91724 13.8672 3.20014C13.864 3.45614 13.7605 3.70147 13.5792 3.88281Z" fill="#333333"/>
</svg>
