<svg width="24" height="24" viewBox="0 0 24 24" fill="none" xmlns="http://www.w3.org/2000/svg">
<path d="M20.3688 5.824L14.1928 12L20.3368 18.144C20.4812 18.2797 20.5968 18.4432 20.6765 18.6247C20.7563 18.8061 20.7985 19.0018 20.8008 19.2C20.8008 19.6243 20.6322 20.0313 20.3322 20.3314C20.0321 20.6314 19.6251 20.8 19.2008 20.8C19.0046 20.8037 18.8098 20.7673 18.6282 20.693C18.4466 20.6188 18.2821 20.5081 18.1448 20.368L12.0008 14.144L5.77678 20.368C5.51879 20.6317 5.16944 20.7863 4.80078 20.8C4.37643 20.8 3.96947 20.6314 3.66941 20.3314C3.36935 20.0313 3.20078 19.6243 3.20078 19.2C3.19232 18.9961 3.22636 18.7926 3.30073 18.6026C3.37509 18.4125 3.48817 18.24 3.63278 18.096L9.80878 12L3.64878 5.84C3.50915 5.70481 3.39766 5.5433 3.32077 5.3648C3.24388 5.1863 3.2031 4.99434 3.20078 4.8C3.20078 4.37565 3.36935 3.96868 3.66941 3.66863C3.96947 3.36857 4.37643 3.2 4.80078 3.2C4.99694 3.19627 5.1918 3.23266 5.37339 3.30695C5.55498 3.38124 5.71948 3.49185 5.85678 3.632L12.0008 9.856L18.2248 3.632C18.4828 3.36829 18.8321 3.21366 19.2008 3.2C19.6251 3.2 20.0321 3.36857 20.3322 3.66863C20.6322 3.96869 20.8008 4.37565 20.8008 4.8C20.796 5.184 20.6408 5.552 20.3688 5.824Z" fill="white"/>
</svg>
