<svg width="24" height="25" viewBox="0 0 24 25" fill="none" xmlns="http://www.w3.org/2000/svg">
<path d="M10 15.498L15.19 12.498L10 9.49805V15.498ZM21.56 7.66805C21.69 8.13805 21.78 8.76805 21.84 9.56805C21.91 10.368 21.94 11.058 21.94 11.658L22 12.498C22 14.688 21.84 16.298 21.56 17.328C21.31 18.228 20.73 18.808 19.83 19.058C19.36 19.188 18.5 19.278 17.18 19.338C15.88 19.408 14.69 19.438 13.59 19.438L12 19.498C7.81 19.498 5.2 19.338 4.17 19.058C3.27 18.808 2.69 18.228 2.44 17.328C2.31 16.858 2.22 16.228 2.16 15.428C2.09 14.628 2.06 13.938 2.06 13.338L2 12.498C2 10.308 2.16 8.69805 2.44 7.66805C2.69 6.76805 3.27 6.18805 4.17 5.93805C4.64 5.80805 5.5 5.71805 6.82 5.65805C8.12 5.58805 9.31 5.55805 10.41 5.55805L12 5.49805C16.19 5.49805 18.8 5.65805 19.83 5.93805C20.73 6.18805 21.31 6.76805 21.56 7.66805Z" fill="#333333"/>
</svg>
