<svg width="24" height="25" viewBox="0 0 24 25" fill="none" xmlns="http://www.w3.org/2000/svg">
<path d="M2.9999 8.74796C2.99979 7.87777 3.21599 7.0212 3.62904 6.25529C4.0421 5.48938 4.63905 4.83815 5.36622 4.36018C6.09339 3.88221 6.92797 3.59249 7.79489 3.51707C8.6618 3.44165 9.53387 3.58291 10.3327 3.92812C11.1314 4.27334 11.8319 4.8117 12.371 5.49478C12.9101 6.17785 13.271 6.98422 13.4211 7.84136C13.5713 8.69849 13.5061 9.57952 13.2313 10.4052C12.9565 11.2308 12.4808 11.9753 11.8469 12.5715C13.0421 13.1514 14.0798 14.0111 14.8721 15.0775C15.6643 16.1439 16.1877 17.3857 16.3979 18.6975C16.421 18.8434 16.4152 18.9925 16.3807 19.1362C16.3463 19.2799 16.2838 19.4155 16.197 19.535C16.1101 19.6546 16.0006 19.7559 15.8746 19.8332C15.7486 19.9104 15.6086 19.9621 15.4626 19.9852C15.3167 20.0084 15.1676 20.0025 15.0239 19.9681C14.8802 19.9336 14.7447 19.8711 14.6251 19.7843C14.5055 19.6974 14.4042 19.5879 14.327 19.4619C14.2497 19.3359 14.198 19.1959 14.1749 19.05C13.9499 17.6404 13.2298 16.3573 12.1438 15.4309C11.0579 14.5045 9.67728 13.9957 8.2499 13.9957C6.82251 13.9957 5.44189 14.5045 4.35594 15.4309C3.27 16.3573 2.54988 17.6404 2.3249 19.05C2.30165 19.1959 2.24989 19.3359 2.17255 19.4618C2.09522 19.5878 1.99384 19.6973 1.87419 19.7841C1.75454 19.8708 1.61897 19.9332 1.47522 19.9676C1.33147 20.002 1.18236 20.0077 1.0364 19.9845C0.890431 19.9612 0.750475 19.9095 0.624516 19.8321C0.498558 19.7548 0.389065 19.6534 0.302288 19.5338C0.215512 19.4141 0.153152 19.2785 0.118768 19.1348C0.084385 18.991 0.0786516 18.8419 0.101896 18.696C0.312398 17.3847 0.835958 16.1435 1.62819 15.0776C2.42043 14.0117 3.45798 13.1526 4.6529 12.573C4.1304 12.0824 3.71412 11.4898 3.4298 10.8319C3.14548 10.1739 2.99916 9.46468 2.9999 8.74796ZM16.4999 6.49796C17.3714 6.49857 18.224 6.75216 18.9542 7.22793C19.6844 7.70371 20.2608 8.38123 20.6134 9.17823C20.966 9.97524 21.0796 10.8575 20.9406 11.7178C20.8015 12.5782 20.4157 13.3796 19.8299 14.025C20.7429 14.4782 21.5542 15.1125 22.2143 15.8892C22.8745 16.6659 23.3697 17.5688 23.6699 18.543C23.7294 18.7321 23.7377 18.9335 23.6941 19.1269C23.6506 19.3203 23.5566 19.4987 23.4218 19.644C23.287 19.7894 23.1161 19.8964 22.9265 19.9544C22.737 20.0123 22.5354 20.0191 22.3424 19.974C22.1495 19.929 21.9719 19.8341 21.8273 19.6988C21.6828 19.5635 21.5764 19.3925 21.5189 19.203C21.2501 18.3333 20.7602 17.5482 20.0971 16.9246C19.434 16.3009 18.6204 15.86 17.7359 15.645C17.4903 15.5857 17.2717 15.4454 17.1155 15.2467C16.9593 15.0481 16.8746 14.8027 16.8749 14.55V14.022C16.8748 13.8125 16.9331 13.6072 17.0433 13.4291C17.1536 13.251 17.3114 13.1072 17.4989 13.014C17.9536 12.7886 18.3188 12.4161 18.5352 11.957C18.7515 11.4979 18.8062 10.9791 18.6905 10.4849C18.5748 9.99078 18.2954 9.55026 17.8977 9.23493C17.5 8.91961 17.0074 8.74799 16.4999 8.74796C16.2015 8.74796 15.9154 8.62944 15.7044 8.41846C15.4934 8.20748 15.3749 7.92133 15.3749 7.62296C15.3749 7.32459 15.4934 7.03844 15.7044 6.82747C15.9154 6.61649 16.2015 6.49796 16.4999 6.49796ZM8.2499 5.74796C7.85039 5.73893 7.4531 5.8098 7.08136 5.95642C6.70962 6.10304 6.37091 6.32245 6.08514 6.60177C5.79936 6.88109 5.57226 7.21469 5.41719 7.58298C5.26211 7.95127 5.18217 8.34683 5.18207 8.74644C5.18197 9.14606 5.26171 9.54166 5.4166 9.91003C5.5715 10.2784 5.79842 10.6121 6.08406 10.8916C6.3697 11.171 6.7083 11.3906 7.07996 11.5374C7.45163 11.6842 7.84888 11.7553 8.2484 11.7465C9.03224 11.7291 9.77815 11.4056 10.3265 10.8452C10.8748 10.2848 11.1819 9.53198 11.1821 8.74795C11.1823 7.96391 10.8755 7.21095 10.3275 6.65026C9.77948 6.08956 9.03373 5.76569 8.2499 5.74796Z" fill="#E86022"/>
</svg>
