<svg width="24" height="24" viewBox="0 0 24 24" fill="none" xmlns="http://www.w3.org/2000/svg">
<path d="M18.889 7.01222C19.697 6.51622 20.232 5.83922 20.494 4.97822C19.7561 5.37733 18.9642 5.66734 18.143 5.83922C17.44 5.08322 16.55 4.69922 15.483 4.69922C14.44 4.69922 13.559 5.06522 12.84 5.77722C12.4928 6.11532 12.2183 6.52076 12.0333 6.9687C11.8482 7.41664 11.7566 7.89763 11.764 8.38222C11.764 8.69122 11.803 8.96722 11.881 9.20122C8.80505 9.09622 6.25905 7.82022 4.25305 5.36422C3.91305 5.96522 3.74305 6.57722 3.74305 7.21022C3.74305 8.51122 4.29205 9.54222 5.38805 10.2992C4.76305 10.2462 4.21205 10.0882 3.74305 9.82922C3.74305 10.7582 4.01605 11.5342 4.56305 12.2172C5.0944 12.8828 5.84323 13.3398 6.67805 13.5082C6.36605 13.5882 6.03705 13.6262 5.69905 13.6262C5.38705 13.6262 5.16605 13.6002 5.03505 13.5432C5.26505 14.3002 5.69905 14.9142 6.32605 15.3842C6.94589 15.8549 7.69987 16.1152 8.47805 16.1272C7.14605 17.1722 5.62305 17.6892 3.90005 17.6892C3.47805 17.6892 3.17905 17.6832 2.99805 17.6512C4.69505 18.7532 6.58405 19.3002 8.67405 19.3002C10.813 19.3002 12.703 18.7582 14.348 17.6742C15.993 16.5962 17.207 15.2662 17.987 13.7002C18.7584 12.1849 19.16 10.5085 19.159 8.80822V8.34022C19.878 7.81014 20.5004 7.16033 20.999 6.41922C20.3257 6.71108 19.6159 6.91055 18.889 7.01222Z" fill="#333333"/>
</svg>
