<svg width="24" height="25" viewBox="0 0 24 25" fill="none" xmlns="http://www.w3.org/2000/svg">
<path d="M18.889 7.51002C19.697 7.01402 20.232 6.33702 20.494 5.47602C19.7561 5.87513 18.9642 6.16515 18.143 6.33702C17.44 5.58102 16.55 5.19702 15.483 5.19702C14.44 5.19702 13.559 5.56302 12.84 6.27502C12.4928 6.61313 12.2183 7.01857 12.0333 7.4665C11.8482 7.91444 11.7566 8.39544 11.764 8.88002C11.764 9.18902 11.803 9.46502 11.881 9.69902C8.80505 9.59402 6.25905 8.31802 4.25305 5.86202C3.91305 6.46302 3.74305 7.07502 3.74305 7.70802C3.74305 9.00902 4.29205 10.04 5.38805 10.797C4.76305 10.744 4.21205 10.586 3.74305 10.327C3.74305 11.256 4.01605 12.032 4.56305 12.715C5.0944 13.3806 5.84323 13.8376 6.67805 14.006C6.36605 14.086 6.03705 14.124 5.69905 14.124C5.38705 14.124 5.16605 14.098 5.03505 14.041C5.26505 14.798 5.69905 15.412 6.32605 15.882C6.94589 16.3527 7.69987 16.613 8.47805 16.625C7.14605 17.67 5.62305 18.187 3.90005 18.187C3.47805 18.187 3.17905 18.181 2.99805 18.149C4.69505 19.251 6.58405 19.798 8.67405 19.798C10.813 19.798 12.703 19.256 14.348 18.172C15.993 17.094 17.207 15.764 17.987 14.198C18.7584 12.6827 19.16 11.0063 19.159 9.30602V8.83802C19.878 8.30795 20.5004 7.65814 20.999 6.91702C20.3257 7.20888 19.6159 7.40836 18.889 7.51002Z" fill="#333333"/>
</svg>
