<svg width="24" height="25" viewBox="0 0 24 25" fill="none" xmlns="http://www.w3.org/2000/svg">
<path d="M8 19.498H5V9.49805H8V19.498ZM19 19.498H16V14.156C16 12.764 15.504 12.071 14.521 12.071C13.742 12.071 13.248 12.459 13 13.236V19.498H10C10 19.498 10.04 10.498 10 9.49805H12.368L12.551 11.498H12.613C13.228 10.498 14.211 9.82005 15.559 9.82005C16.584 9.82005 17.413 10.105 18.046 10.821C18.683 11.538 19 12.5 19 13.851V19.498Z" fill="#333333"/>
<path d="M6.49922 8.49805C7.35526 8.49805 8.04922 7.82647 8.04922 6.99805C8.04922 6.16962 7.35526 5.49805 6.49922 5.49805C5.64318 5.49805 4.94922 6.16962 4.94922 6.99805C4.94922 7.82647 5.64318 8.49805 6.49922 8.49805Z" fill="#333333"/>
</svg>
