<svg width="24" height="24" viewBox="0 0 24 24" fill="none" xmlns="http://www.w3.org/2000/svg">
<path d="M18.889 7.01197C19.697 6.51597 20.232 5.83897 20.494 4.97797C19.7561 5.37708 18.9642 5.6671 18.143 5.83897C17.44 5.08297 16.55 4.69897 15.483 4.69897C14.44 4.69897 13.559 5.06497 12.84 5.77697C12.4928 6.11508 12.2183 6.52052 12.0333 6.96846C11.8482 7.41639 11.7566 7.89739 11.764 8.38197C11.764 8.69097 11.803 8.96697 11.881 9.20097C8.80505 9.09597 6.25905 7.81997 4.25305 5.36397C3.91305 5.96497 3.74305 6.57697 3.74305 7.20997C3.74305 8.51097 4.29205 9.54197 5.38805 10.299C4.76305 10.246 4.21205 10.088 3.74305 9.82898C3.74305 10.758 4.01605 11.534 4.56305 12.217C5.0944 12.8825 5.84323 13.3396 6.67805 13.508C6.36605 13.588 6.03705 13.626 5.69905 13.626C5.38705 13.626 5.16605 13.6 5.03505 13.543C5.26505 14.3 5.69905 14.914 6.32605 15.384C6.94589 15.8546 7.69987 16.1149 8.47805 16.127C7.14605 17.172 5.62305 17.689 3.90005 17.689C3.47805 17.689 3.17905 17.683 2.99805 17.651C4.69505 18.753 6.58405 19.3 8.67405 19.3C10.813 19.3 12.703 18.758 14.348 17.674C15.993 16.596 17.207 15.266 17.987 13.7C18.7584 12.1847 19.16 10.5083 19.159 8.80797V8.33997C19.878 7.8099 20.5004 7.16009 20.999 6.41897C20.3257 6.71084 19.6159 6.91031 18.889 7.01197Z" fill="#333333"/>
</svg>
