<svg width="24" height="25" viewBox="0 0 24 25" fill="none" xmlns="http://www.w3.org/2000/svg">
<path d="M12 12.498C11.4067 12.498 10.8266 12.674 10.3333 13.0036C9.83994 13.3333 9.45542 13.8018 9.22836 14.35C9.0013 14.8982 8.94189 15.5014 9.05764 16.0833C9.1734 16.6653 9.45912 17.1998 9.87868 17.6194C10.2982 18.0389 10.8328 18.3246 11.4147 18.4404C11.9967 18.5562 12.5999 18.4967 13.1481 18.2697C13.6962 18.0426 14.1648 17.6581 14.4944 17.1648C14.8241 16.6714 15 16.0914 15 15.498C15 14.7024 14.6839 13.9393 14.1213 13.3767C13.5587 12.8141 12.7956 12.498 12 12.498ZM12 16.498C11.8022 16.498 11.6089 16.4394 11.4444 16.3295C11.28 16.2196 11.1518 16.0635 11.0761 15.8807C11.0004 15.698 10.9806 15.4969 11.0192 15.303C11.0578 15.109 11.153 14.9308 11.2929 14.7909C11.4327 14.6511 11.6109 14.5558 11.8049 14.5173C11.9989 14.4787 12.2 14.4985 12.3827 14.5742C12.5654 14.6499 12.7216 14.778 12.8315 14.9425C12.9414 15.1069 13 15.3003 13 15.498C13 15.7633 12.8946 16.0176 12.7071 16.2052C12.5196 16.3927 12.2652 16.498 12 16.498ZM11.29 10.208C11.3851 10.2991 11.4972 10.3705 11.62 10.418C11.7397 10.471 11.8691 10.4983 12 10.4983C12.1309 10.4983 12.2603 10.471 12.38 10.418C12.5028 10.3705 12.6149 10.2991 12.71 10.208L15 7.95805C15.1936 7.76444 15.3024 7.50185 15.3024 7.22805C15.3024 6.95424 15.1936 6.69165 15 6.49805C14.8064 6.30444 14.5438 6.19567 14.27 6.19567C13.9962 6.19567 13.7336 6.30444 13.54 6.49805L13 7.08805V3.49805C13 3.23283 12.8946 2.97848 12.7071 2.79094C12.5196 2.6034 12.2652 2.49805 12 2.49805C11.7348 2.49805 11.4804 2.6034 11.2929 2.79094C11.1054 2.97848 11 3.23283 11 3.49805V7.08805L10.46 6.49805C10.2664 6.30444 10.0038 6.19567 9.73 6.19567C9.4562 6.19567 9.19361 6.30444 9 6.49805C8.80639 6.69165 8.69762 6.95424 8.69762 7.22805C8.69762 7.50185 8.80639 7.76444 9 7.95805L11.29 10.208ZM19 15.498C19 15.3003 18.9414 15.1069 18.8315 14.9425C18.7216 14.778 18.5654 14.6499 18.3827 14.5742C18.2 14.4985 17.9989 14.4787 17.8049 14.5173C17.6109 14.5558 17.4327 14.6511 17.2929 14.7909C17.153 14.9308 17.0578 15.109 17.0192 15.303C16.9806 15.4969 17.0004 15.698 17.0761 15.8807C17.1518 16.0635 17.28 16.2196 17.4444 16.3295C17.6089 16.4394 17.8022 16.498 18 16.498C18.2652 16.498 18.5196 16.3927 18.7071 16.2052C18.8946 16.0176 19 15.7633 19 15.498ZM20 8.49805H17C16.7348 8.49805 16.4804 8.6034 16.2929 8.79094C16.1054 8.97848 16 9.23283 16 9.49805C16 9.76326 16.1054 10.0176 16.2929 10.2052C16.4804 10.3927 16.7348 10.498 17 10.498H20C20.2652 10.498 20.5196 10.6034 20.7071 10.7909C20.8946 10.9785 21 11.2328 21 11.498V19.498C21 19.7633 20.8946 20.0176 20.7071 20.2052C20.5196 20.3927 20.2652 20.498 20 20.498H4C3.73478 20.498 3.48043 20.3927 3.29289 20.2052C3.10536 20.0176 3 19.7633 3 19.498V11.498C3 11.2328 3.10536 10.9785 3.29289 10.7909C3.48043 10.6034 3.73478 10.498 4 10.498H7C7.26522 10.498 7.51957 10.3927 7.70711 10.2052C7.89464 10.0176 8 9.76326 8 9.49805C8 9.23283 7.89464 8.97848 7.70711 8.79094C7.51957 8.6034 7.26522 8.49805 7 8.49805H4C3.20435 8.49805 2.44129 8.81412 1.87868 9.37673C1.31607 9.93934 1 10.7024 1 11.498V19.498C1 20.2937 1.31607 21.0568 1.87868 21.6194C2.44129 22.182 3.20435 22.498 4 22.498H20C20.7956 22.498 21.5587 22.182 22.1213 21.6194C22.6839 21.0568 23 20.2937 23 19.498V11.498C23 10.7024 22.6839 9.93934 22.1213 9.37673C21.5587 8.81412 20.7956 8.49805 20 8.49805ZM5 15.498C5 15.6958 5.05865 15.8892 5.16853 16.0536C5.27841 16.2181 5.43459 16.3462 5.61732 16.4219C5.80004 16.4976 6.00111 16.5174 6.19509 16.4788C6.38907 16.4402 6.56725 16.345 6.70711 16.2052C6.84696 16.0653 6.9422 15.8871 6.98079 15.6931C7.01937 15.4992 6.99957 15.2981 6.92388 15.1154C6.84819 14.9326 6.72002 14.7765 6.55557 14.6666C6.39112 14.5567 6.19778 14.498 6 14.498C5.73478 14.498 5.48043 14.6034 5.29289 14.7909C5.10536 14.9785 5 15.2328 5 15.498Z" fill="#E86022"/>
</svg>
