<svg width="8" height="14" viewBox="0 0 8 14" fill="none" xmlns="http://www.w3.org/2000/svg">
<path d="M0.292464 0.642037C0.104993 0.829565 -0.000322851 1.08387 -0.000322862 1.34904C-0.000322874 1.6142 0.104993 1.86851 0.292464 2.05604L5.24246 7.00604L0.292463 11.956C0.110305 12.1446 0.00951094 12.3972 0.0117893 12.6594C0.0140676 12.9216 0.119236 13.1724 0.304644 13.3579C0.490053 13.5433 0.740865 13.6484 1.00306 13.6507C1.26526 13.653 1.51786 13.5522 1.70646 13.37L7.36346 7.71304C7.55093 7.52551 7.65625 7.2712 7.65625 7.00604C7.65625 6.74087 7.55093 6.48657 7.36346 6.29904L1.70646 0.642037C1.51894 0.454566 1.26463 0.349251 0.999464 0.349251C0.734299 0.34925 0.479991 0.454566 0.292464 0.642037Z" fill="#828282"/>
</svg>
